<svg width="246" height="59" viewBox="0 0 246 59" fill="none" xmlns="http://www.w3.org/2000/svg">
<path d="M9.03125 46V27.5938H27.9375V21.0312H9.03125V7.71875H29.7188V0.90625H0.96875V46H9.03125ZM35.5938 0.90625V46H43.6562V31.0938H52.7812C61.9062 31.0938 68.3125 25 68.3125 16C68.3125 7 62.0938 0.90625 53.125 0.90625H35.5938ZM43.6562 7.5H51C56.7812 7.5 60.125 10.5938 60.125 16C60.125 21.4688 56.75 24.5938 50.9688 24.5938H43.6562V7.5ZM93.2812 46V7.71875H106.75V0.90625H71.75V7.71875H85.25V46H93.2812ZM144 46C153.625 46 159.469 41.125 159.469 33.1875C159.469 27.2188 155.188 22.8125 149.062 22.2188V21.9688C153.688 21.2188 157.281 17 157.281 12.1562C157.281 5.3125 152 0.90625 143.812 0.90625H125.094V46H144ZM133.156 7.1875H141.781C146.594 7.1875 149.312 9.40625 149.312 13.3438C149.312 17.5312 146.156 19.9062 140.531 19.9062H133.156V7.1875ZM133.156 39.7188V25.625H141.812C148 25.625 151.25 28.0312 151.25 32.625C151.25 37.25 148.094 39.7188 142.156 39.7188H133.156ZM164.656 46H172.438V0.90625H164.656V46ZM193.719 46.6562C203.438 46.6562 209.75 40.1875 209.75 29.4375C209.75 18.7188 203.375 12.1875 193.719 12.1875C184.062 12.1875 177.688 18.75 177.688 29.4375C177.688 40.1875 184 46.6562 193.719 46.6562ZM193.719 40.5C188.781 40.5 185.594 36.5 185.594 29.4375C185.594 22.4062 188.812 18.375 193.719 18.375C198.656 18.375 201.844 22.4062 201.844 29.4375C201.844 36.5 198.656 40.5 193.719 40.5ZM229.375 39.8438C224.469 39.8438 221.344 35.9062 221.344 29.3438C221.344 22.8438 224.469 18.7188 229.375 18.7188C234.344 18.7188 237.562 22.9062 237.562 29.3438C237.562 35.8125 234.344 39.8438 229.375 39.8438ZM229.344 58.5C239 58.5 245.344 53.375 245.344 45.4688V12.875H237.719V18.5625H237.594C235.688 14.75 231.875 12.3125 227.156 12.3125C218.688 12.3125 213.375 18.8438 213.375 29.3125C213.375 39.625 218.812 46.0312 227 46.0312C231.75 46.0312 235.656 43.6562 237.375 40.0938H237.562V45.6875C237.562 49.9062 234.656 52.75 229.594 52.75C225.906 52.75 223.062 51.0312 222.219 48.5H214.5C215.281 54.3125 221.156 58.5 229.344 58.5Z" fill="#F37124"/>
</svg>
