<svg width="318" height="64" viewBox="0 0 318 64" fill="none" xmlns="http://www.w3.org/2000/svg">
<path d="M31.4239 9.88255C31.7226 10.3519 31.9786 10.9919 32.1919 11.8025C32.4479 12.5705 32.5759 13.3812 32.5759 14.2345C32.5759 15.8985 32.2132 17.0932 31.4879 17.8185C30.8052 18.5012 29.8666 18.8425 28.6719 18.8425H15.2319V26.0745H29.2479C29.5893 26.5439 29.8666 27.1625 30.0799 27.9305C30.3359 28.6985 30.4639 29.5092 30.4639 30.3625C30.4639 31.9839 30.1012 33.1572 29.3759 33.8825C28.6932 34.5652 27.7546 34.9065 26.5599 34.9065H15.3599V48.4105C14.8906 48.5385 14.1439 48.6665 13.1199 48.7945C12.1386 48.9225 11.1572 48.9865 10.1759 48.9865C9.19458 48.9865 8.31991 48.9012 7.55191 48.7305C6.82658 48.6025 6.20791 48.3465 5.69591 47.9625C5.18391 47.5785 4.79991 47.0452 4.54391 46.3625C4.28791 45.6799 4.15991 44.7839 4.15991 43.6745V15.8345C4.15991 13.9999 4.69325 12.5492 5.75991 11.4825C6.82658 10.4159 8.27725 9.88255 10.1119 9.88255H31.4239ZM52.6879 27.8665C54.4799 27.8665 55.8453 27.4612 56.7839 26.6505C57.7653 25.7972 58.2559 24.5172 58.2559 22.8105C58.2559 21.1892 57.7439 19.9519 56.7199 19.0985C55.7386 18.2025 54.2879 17.7545 52.3679 17.7545C51.6853 17.7545 51.1093 17.7759 50.6399 17.8185C50.2133 17.8185 49.7653 17.8612 49.2959 17.9465V27.8665H52.6879ZM49.3599 48.4105C48.8906 48.5385 48.1439 48.6665 47.1199 48.7945C46.1386 48.9225 45.1573 48.9865 44.1759 48.9865C43.1946 48.9865 42.3199 48.9012 41.5519 48.7305C40.8266 48.6025 40.2079 48.3465 39.6959 47.9625C39.1839 47.5785 38.7999 47.0452 38.5439 46.3625C38.2879 45.6799 38.1599 44.7839 38.1599 43.6745V13.5305C38.1599 12.6345 38.3946 11.9519 38.8639 11.4825C39.3759 10.9705 40.0586 10.5652 40.9119 10.2665C42.3626 9.75455 44.0053 9.39188 45.8399 9.17855C47.7173 8.92255 49.5946 8.79455 51.4719 8.79455C57.3599 8.79455 61.8613 10.0532 64.9759 12.5705C68.0906 15.0879 69.6479 18.5012 69.6479 22.8105C69.6479 24.9012 69.3066 26.7999 68.6239 28.5065C67.9839 30.1705 67.0026 31.6212 65.6799 32.8585C64.3999 34.0532 62.7573 34.9919 60.7519 35.6745C58.7893 36.3145 56.5066 36.6345 53.9039 36.6345H49.3599V48.4105ZM73.8053 18.8425C73.5066 18.3732 73.2293 17.7332 72.9733 16.9225C72.7173 16.1119 72.5893 15.2585 72.5893 14.3625C72.5893 12.6985 72.9519 11.5039 73.6773 10.7785C74.4453 10.0532 75.4266 9.69055 76.6213 9.69055H104.525C104.824 10.1599 105.101 10.7999 105.357 11.6105C105.613 12.4212 105.741 13.2745 105.741 14.1705C105.741 15.8345 105.357 17.0292 104.589 17.7545C103.864 18.4799 102.904 18.8425 101.709 18.8425H94.6053V48.4105C94.1359 48.5385 93.3893 48.6665 92.3653 48.7945C91.3839 48.9225 90.4026 48.9865 89.4213 48.9865C88.4399 48.9865 87.5653 48.9012 86.7973 48.7305C86.0719 48.6025 85.4533 48.3465 84.9413 47.9625C84.4293 47.5785 84.0453 47.0452 83.7893 46.3625C83.5333 45.6799 83.4053 44.7839 83.4053 43.6745V18.8425H73.8053ZM134.853 40.6665C135.45 40.8372 136.218 40.9652 137.157 41.0505C138.095 41.0932 138.991 41.1145 139.845 41.1145C141.551 41.1145 142.959 40.7732 144.069 40.0905C145.221 39.3652 145.797 38.2559 145.797 36.7625C145.797 35.3545 145.327 34.3519 144.389 33.7545C143.45 33.1572 142.021 32.8585 140.101 32.8585H134.853V40.6665ZM134.853 25.0505H139.525C141.359 25.0505 142.682 24.7092 143.493 24.0265C144.346 23.3439 144.773 22.3412 144.773 21.0185C144.773 19.8665 144.282 18.9492 143.301 18.2665C142.362 17.5839 140.933 17.2425 139.013 17.2425C138.373 17.2425 137.626 17.2639 136.773 17.3065C135.962 17.3492 135.322 17.4132 134.853 17.4985V25.0505ZM139.013 49.6905C138.287 49.6905 137.434 49.6692 136.453 49.6265C135.471 49.5839 134.447 49.4985 133.381 49.3705C132.357 49.2425 131.333 49.0719 130.309 48.8585C129.285 48.6879 128.346 48.4319 127.493 48.0905C125.146 47.1945 123.973 45.6372 123.973 43.4185V13.5305C123.973 12.6345 124.207 11.9519 124.677 11.4825C125.189 10.9705 125.871 10.5652 126.725 10.2665C128.175 9.75455 129.989 9.39188 132.165 9.17855C134.341 8.92255 136.581 8.79455 138.885 8.79455C144.346 8.79455 148.549 9.71188 151.493 11.5465C154.437 13.3812 155.909 16.2185 155.909 20.0585C155.909 21.9785 155.354 23.6425 154.245 25.0505C153.135 26.4159 151.642 27.4185 149.765 28.0585C151.898 28.6559 153.669 29.7439 155.077 31.3225C156.527 32.9012 157.253 34.8852 157.253 37.2745C157.253 41.4985 155.674 44.6345 152.517 46.6825C149.402 48.6879 144.901 49.6905 139.013 49.6905ZM173.837 48.6025C173.368 48.6879 172.664 48.7945 171.725 48.9225C170.829 49.0932 169.912 49.1785 168.973 49.1785C168.035 49.1785 167.181 49.1145 166.413 48.9865C165.688 48.8585 165.069 48.6025 164.557 48.2185C164.045 47.8345 163.64 47.3225 163.341 46.6825C163.085 45.9999 162.957 45.1252 162.957 44.0585V6.93855C163.427 6.85322 164.109 6.74655 165.005 6.61855C165.944 6.44788 166.883 6.36255 167.821 6.36255C168.76 6.36255 169.592 6.42655 170.317 6.55455C171.085 6.68255 171.725 6.93855 172.237 7.32255C172.749 7.70655 173.133 8.23988 173.389 8.92255C173.688 9.56255 173.837 10.4159 173.837 11.4825V48.6025ZM212.895 33.1145C212.895 35.7599 212.49 38.1279 211.679 40.2185C210.869 42.2665 209.717 43.9945 208.223 45.4025C206.773 46.8105 205.023 47.8772 202.975 48.6025C200.927 49.3279 198.645 49.6905 196.127 49.6905C193.61 49.6905 191.327 49.3065 189.279 48.5385C187.231 47.7705 185.461 46.6825 183.967 45.2745C182.517 43.8239 181.386 42.0745 180.575 40.0265C179.765 37.9785 179.359 35.6745 179.359 33.1145C179.359 30.5972 179.765 28.3145 180.575 26.2665C181.386 24.2185 182.517 22.4905 183.967 21.0825C185.461 19.6319 187.231 18.5225 189.279 17.7545C191.327 16.9865 193.61 16.6025 196.127 16.6025C198.645 16.6025 200.927 17.0079 202.975 17.8185C205.023 18.5865 206.773 19.6959 208.223 21.1465C209.717 22.5545 210.869 24.2825 211.679 26.3305C212.49 28.3785 212.895 30.6399 212.895 33.1145ZM190.495 33.1145C190.495 35.7172 190.986 37.7225 191.967 39.1305C192.991 40.4959 194.399 41.1785 196.191 41.1785C197.983 41.1785 199.349 40.4745 200.287 39.0665C201.269 37.6585 201.759 35.6745 201.759 33.1145C201.759 30.5545 201.269 28.5919 200.287 27.2265C199.306 25.8185 197.919 25.1145 196.127 25.1145C194.335 25.1145 192.949 25.8185 191.967 27.2265C190.986 28.5919 190.495 30.5545 190.495 33.1145ZM233.371 16.6025C235.803 16.6025 238.001 16.9225 239.963 17.5625C241.969 18.1599 243.654 18.9492 245.019 19.9305C245.873 20.5279 246.534 21.1892 247.003 21.9145C247.515 22.6399 247.771 23.5785 247.771 24.7305V47.1305C247.771 49.3919 247.345 51.3332 246.491 52.9545C245.638 54.6185 244.465 55.9839 242.971 57.0505C241.521 58.1599 239.793 58.9705 237.787 59.4825C235.825 59.9945 233.713 60.2505 231.451 60.2505C227.569 60.2505 224.518 59.7172 222.299 58.6505C220.081 57.6265 218.971 55.9412 218.971 53.5945C218.971 52.6132 219.163 51.7385 219.547 50.9705C219.974 50.2452 220.443 49.6905 220.955 49.3065C222.193 49.9892 223.579 50.5652 225.115 51.0345C226.694 51.5039 228.315 51.7385 229.979 51.7385C232.283 51.7385 234.118 51.3545 235.483 50.5865C236.849 49.8185 237.531 48.5812 237.531 46.8745V45.8505C235.782 46.6185 233.649 47.0025 231.131 47.0025C229.211 47.0025 227.377 46.7252 225.627 46.1705C223.921 45.5732 222.406 44.6772 221.083 43.4825C219.803 42.2452 218.758 40.6665 217.947 38.7465C217.179 36.8265 216.795 34.5439 216.795 31.8985C216.795 29.2959 217.201 27.0345 218.011 25.1145C218.865 23.1945 220.017 21.6159 221.467 20.3785C222.961 19.0985 224.71 18.1599 226.715 17.5625C228.763 16.9225 230.982 16.6025 233.371 16.6025ZM237.339 25.8825C237.041 25.7119 236.593 25.5412 235.995 25.3705C235.441 25.1999 234.737 25.1145 233.883 25.1145C231.793 25.1145 230.214 25.7119 229.147 26.9065C228.123 28.0585 227.611 29.7225 227.611 31.8985C227.611 34.3732 228.123 36.1652 229.147 37.2745C230.214 38.3412 231.558 38.8745 233.179 38.8745C234.929 38.8745 236.315 38.4692 237.339 37.6585V25.8825Z" fill="#F37124"/>
<path d="M282.293 49.074L281.894 49.2052C279.329 50.0566 275.535 51.372 272.129 52.9386C271.948 53.026 271.828 53.2662 271.828 53.2662C271.763 53.4134 271.687 53.5937 271.6 53.7954L271.589 53.8229C271.205 54.6907 270.682 55.9952 270.454 56.5302L270.279 56.9505C270.251 57.0159 270.268 57.0924 270.322 57.1414C270.356 57.1743 270.392 57.1906 270.436 57.1906C270.458 57.1906 270.486 57.1852 270.512 57.1743L270.922 56.9778C271.857 56.5356 273.036 55.8642 274.269 55.2747L274.313 55.2529C276.664 54.1394 279.318 52.8784 280.915 52.1144C280.915 52.1144 281.173 51.978 281.303 51.7213L282.5 49.3198C282.533 49.2597 282.521 49.1832 282.478 49.1287C282.434 49.074 282.358 49.0522 282.293 49.074Z" fill="#F37124"/>
<path d="M272.728 45.3525C272.898 45.025 273.674 43.5294 273.848 43.1964L273.881 43.1364C279.076 33.3388 285.409 24.0924 292.696 15.6648L292.899 15.43C292.957 15.3592 292.969 15.25 292.925 15.1681C292.877 15.0807 292.783 15.0372 292.689 15.048L292.385 15.0916C287.603 15.7522 282.761 16.6637 277.991 17.8045C277.516 17.9355 277.211 18.2467 277.145 18.3175C273.576 22.5914 270.196 27.089 267.095 31.7013C266.942 31.936 266.888 32.2418 266.927 32.4928C266.959 32.7384 267.707 38.4969 268.843 42.9181C266.027 51.0236 263.51 61.7054 263.51 61.7054C263.488 61.7765 263.503 61.8476 263.543 61.9075C263.586 61.9676 263.651 62.0003 263.728 62.0003H265.332C265.437 62.0003 265.523 61.9402 265.563 61.8473L265.672 61.5472C267.308 57.0823 269.176 52.672 271.239 48.3709C271.719 47.3774 272.728 45.3525 272.728 45.3525Z" fill="#F37124"/>
<path d="M295.048 17.4247L295.041 17.1192C295.037 17.0209 294.976 16.939 294.889 16.9063C294.802 16.8736 294.699 16.9009 294.634 16.9719L294.431 17.2011C285.932 27.0315 278.786 37.9371 273.199 49.6233L273.068 49.8962C273.025 49.9836 273.04 50.0873 273.106 50.1581C273.149 50.2019 273.21 50.2291 273.269 50.2291C273.297 50.2291 273.33 50.2237 273.362 50.2128L273.642 50.0982C278.416 48.1223 283.291 46.4084 288.131 45.0056C288.421 44.9237 288.667 44.7162 288.804 44.4488C290.927 40.3114 295.856 32.2987 295.856 32.2987C295.98 32.1185 295.948 31.8511 295.948 31.8511C295.948 31.8511 295.102 22.2717 295.048 17.4247Z" fill="#F37124"/>
<path d="M306.039 3.60307C304.834 2.55509 303.082 2.06383 300.364 2.00379C297.896 1.94921 294.965 2.48413 291.641 3.57579C291.145 3.75045 290.746 4.02882 290.393 4.3727C287.013 7.54393 283.727 10.9117 280.621 14.3831L280.381 14.6451C280.316 14.7216 280.305 14.8308 280.353 14.9127C280.403 15.0001 280.508 15.0437 280.606 15.0219L280.955 14.9454C285.96 13.8756 291.014 13.0568 295.976 12.5165C296.302 12.4783 296.641 12.5874 296.883 12.8112C297.126 13.035 297.264 13.3571 297.257 13.69C297.176 18.6134 297.355 23.5587 297.793 28.3891L297.819 28.7057C297.83 28.8041 297.896 28.8805 297.996 28.9078C298.011 28.9132 298.028 28.9132 298.05 28.9187C298.12 28.9187 298.196 28.886 298.246 28.8204L298.425 28.5639C301.221 24.5792 304.261 20.7039 307.46 17.0359C307.82 16.6267 307.913 16.3699 307.978 15.9988C308.981 9.569 307.427 4.80937 306.039 3.60307Z" fill="#F37124"/>
</svg>
